<?xml version="1.0" encoding="UTF-8"?>
<svg width="24px" height="24px" viewBox="0 0 24 24" version="1.1" xmlns="http://www.w3.org/2000/svg" xmlns:xlink="http://www.w3.org/1999/xlink">
    <!-- Generator: Sketch 40 (33762) - http://www.bohemiancoding.com/sketch -->
    <title>Assets/eye/ic_eye_open_hover</title>
    <desc>Created with Sketch.</desc>
    <defs></defs>
    <g id="Specification" stroke="none" stroke-width="1" fill="none" fill-rule="evenodd">
        <g transform="translate(-866.000000, -754.000000)" id="Group-3-Copy">
            <g transform="translate(869.000000, 759.000000)">
                <g id="Group-2-Copy-2" transform="translate(9.500000, 4.000000) scale(1, -1) translate(-9.500000, -4.000000) " stroke="#256AA3">
                    <path d="M1,0 C1,0 2.77609049,5.3651009 9.5,5.49947916 C16.2239095,5.63385742 18,0 18,0" id="Path-3"></path>
                    <path d="M9.5,5 L9.5,8" id="Path-4" opacity="0.699999988"></path>
                    <path d="M13.5,4.5 L14.3183154,7.38623629" id="Path-4-Copy"></path>
                    <path d="M16.5,3 L18.1641006,5.49615088" id="Path-4-Copy-2"></path>
                    <path d="M4.6816846,4.5 L5.5,7.38623629" id="Path-4-Copy-4" transform="translate(5.090842, 5.943118) scale(-1, 1) translate(-5.090842, -5.943118) "></path>
                    <path d="M0.835899411,3 L2.5,5.49615088" id="Path-4-Copy-3" transform="translate(1.667950, 4.248075) scale(-1, 1) translate(-1.667950, -4.248075) "></path>
                </g>
                <path d="M1,8 C1,8 2.77609049,12.3899552 9.5,12.4999092 C16.2239095,12.6098633 18,8 18,8" id="Path-3" stroke="#256AA3"></path>
                <path d="M8.28000212,4.21849788 C8.65987708,4.07721129 9.07092171,4 9.5,4 C11.4329966,4 13,5.56700338 13,7.5 C13,9.43299662 11.4329966,11 9.5,11 C7.56700338,11 6,9.43299662 6,7.5 C6,7.07092171 6.07721129,6.65987708 6.21849788,6.28000212 C6.48185296,6.71175605 6.95726499,7 7.5,7 C8.32842712,7 9,6.32842712 9,5.5 C9,4.95726499 8.71175605,4.48185296 8.28000212,4.21849788 Z" id="Combined-Shape" fill="#256AA3"></path>
            </g>
        </g>
    </g>
</svg>